<svg width="184" height="16" viewBox="0 0 184 16" fill="none" xmlns="http://www.w3.org/2000/svg">
<path d="M0.409091 12V0.363636H7.38636V1.61364H1.81818V5.54545H6.86364V6.79545H1.81818V12H0.409091ZM12.6827 12.1818C11.8948 12.1818 11.2036 11.9943 10.6089 11.6193C10.018 11.2443 9.55583 10.7197 9.2225 10.0455C8.89295 9.37121 8.72818 8.58333 8.72818 7.68182C8.72818 6.77273 8.89295 5.97917 9.2225 5.30114C9.55583 4.62311 10.018 4.09659 10.6089 3.72159C11.2036 3.34659 11.8948 3.15909 12.6827 3.15909C13.4706 3.15909 14.16 3.34659 14.7509 3.72159C15.3456 4.09659 15.8077 4.62311 16.1373 5.30114C16.4706 5.97917 16.6373 6.77273 16.6373 7.68182C16.6373 8.58333 16.4706 9.37121 16.1373 10.0455C15.8077 10.7197 15.3456 11.2443 14.7509 11.6193C14.16 11.9943 13.4706 12.1818 12.6827 12.1818ZM12.6827 10.9773C13.2812 10.9773 13.7736 10.8239 14.16 10.517C14.5464 10.2102 14.8323 9.80682 15.018 9.30682C15.2036 8.80682 15.2964 8.26515 15.2964 7.68182C15.2964 7.09848 15.2036 6.55492 15.018 6.05114C14.8323 5.54735 14.5464 5.14015 14.16 4.82955C13.7736 4.51894 13.2812 4.36364 12.6827 4.36364C12.0842 4.36364 11.5918 4.51894 11.2055 4.82955C10.8191 5.14015 10.5331 5.54735 10.3475 6.05114C10.1619 6.55492 10.0691 7.09848 10.0691 7.68182C10.0691 8.26515 10.1619 8.80682 10.3475 9.30682C10.5331 9.80682 10.8191 10.2102 11.2055 10.517C11.5918 10.8239 12.0842 10.9773 12.6827 10.9773ZM24.3441 8.43182V3.27273H25.6851V12H24.3441V10.5227H24.2532C24.0487 10.9659 23.7305 11.3428 23.2987 11.6534C22.8669 11.9602 22.3214 12.1136 21.6623 12.1136C21.1169 12.1136 20.632 11.9943 20.2078 11.7557C19.7835 11.5133 19.4502 11.1496 19.2078 10.6648C18.9654 10.1761 18.8441 9.56061 18.8441 8.81818V3.27273H20.1851V8.72727C20.1851 9.36364 20.3631 9.87121 20.7191 10.25C21.079 10.6288 21.5373 10.8182 22.0941 10.8182C22.4275 10.8182 22.7665 10.733 23.1112 10.5625C23.4597 10.392 23.7513 10.1307 23.9862 9.77841C24.2248 9.42614 24.3441 8.97727 24.3441 8.43182ZM29.6419 6.75V12H28.301V3.27273H29.5965V4.63636H29.7101C29.9147 4.19318 30.2253 3.83712 30.6419 3.56818C31.0586 3.29545 31.5965 3.15909 32.2556 3.15909C32.8465 3.15909 33.3635 3.2803 33.8067 3.52273C34.2499 3.76136 34.5946 4.125 34.8408 4.61364C35.087 5.09848 35.2101 5.71212 35.2101 6.45455V12H33.8692V6.54545C33.8692 5.85985 33.6912 5.32576 33.3351 4.94318C32.9791 4.55682 32.4904 4.36364 31.8692 4.36364C31.4412 4.36364 31.0586 4.45644 30.7215 4.64205C30.3881 4.82765 30.1249 5.09848 29.9317 5.45455C29.7385 5.81061 29.6419 6.24242 29.6419 6.75ZM41.1159 12.1818C40.3886 12.1818 39.7465 11.9981 39.1897 11.6307C38.6329 11.2595 38.1973 10.7367 37.8829 10.0625C37.5685 9.38447 37.4113 8.58333 37.4113 7.65909C37.4113 6.74242 37.5685 5.94697 37.8829 5.27273C38.1973 4.59848 38.6348 4.07765 39.1954 3.71023C39.756 3.3428 40.4037 3.15909 41.1386 3.15909C41.7068 3.15909 42.1556 3.25379 42.4852 3.44318C42.8185 3.62879 43.0723 3.84091 43.2465 4.07955C43.4246 4.31439 43.5628 4.50758 43.6613 4.65909H43.7749V0.363636H45.1159V12H43.8204V10.6591H43.6613C43.5628 10.8182 43.4227 11.0189 43.2409 11.2614C43.059 11.5 42.7996 11.714 42.4624 11.9034C42.1253 12.089 41.6765 12.1818 41.1159 12.1818ZM41.2977 10.9773C41.8355 10.9773 42.2901 10.8371 42.6613 10.5568C43.0325 10.2727 43.3147 9.88068 43.5079 9.38068C43.7011 8.87689 43.7977 8.29545 43.7977 7.63636C43.7977 6.98485 43.703 6.41477 43.5136 5.92614C43.3242 5.43371 43.0439 5.05114 42.6727 4.77841C42.3015 4.50189 41.8431 4.36364 41.2977 4.36364C40.7295 4.36364 40.256 4.50947 39.8772 4.80114C39.5022 5.08902 39.22 5.48106 39.0306 5.97727C38.845 6.4697 38.7522 7.02273 38.7522 7.63636C38.7522 8.25758 38.8469 8.82197 39.0363 9.32955C39.2295 9.83333 39.5136 10.2348 39.8886 10.5341C40.2674 10.8295 40.7371 10.9773 41.2977 10.9773ZM55.1461 12.2045C54.593 12.2045 54.0912 12.1004 53.6404 11.892C53.1896 11.6799 52.8317 11.375 52.5665 10.9773C52.3014 10.5758 52.1688 10.0909 52.1688 9.52273C52.1688 9.02273 52.2673 8.61742 52.4643 8.30682C52.6612 7.99242 52.9245 7.74621 53.254 7.56818C53.5836 7.39015 53.9472 7.25758 54.3449 7.17045C54.7465 7.07955 55.1499 7.00758 55.5552 6.95455C56.0855 6.88636 56.5154 6.83523 56.8449 6.80114C57.1783 6.76326 57.4207 6.70076 57.5722 6.61364C57.7275 6.52652 57.8052 6.375 57.8052 6.15909V6.11364C57.8052 5.55303 57.6518 5.11742 57.3449 4.80682C57.0419 4.49621 56.5817 4.34091 55.9643 4.34091C55.3241 4.34091 54.8222 4.48106 54.4586 4.76136C54.0949 5.04167 53.8393 5.34091 53.6915 5.65909L52.4188 5.20455C52.6461 4.67424 52.9491 4.26136 53.3279 3.96591C53.7105 3.66667 54.1271 3.45833 54.5779 3.34091C55.0324 3.2197 55.4794 3.15909 55.9188 3.15909C56.1991 3.15909 56.5211 3.19318 56.8847 3.26136C57.2521 3.32576 57.6063 3.46023 57.9472 3.66477C58.2919 3.86932 58.5779 4.17803 58.8052 4.59091C59.0324 5.00379 59.1461 5.55682 59.1461 6.25V12H57.8052V10.8182H57.737C57.6461 11.0076 57.4946 11.2102 57.2824 11.4261C57.0703 11.642 56.7881 11.8258 56.4359 11.9773C56.0836 12.1288 55.6537 12.2045 55.1461 12.2045ZM55.3506 11C55.8809 11 56.3279 10.8958 56.6915 10.6875C57.059 10.4792 57.3355 10.2102 57.5211 9.88068C57.7105 9.55114 57.8052 9.20455 57.8052 8.84091V7.61364C57.7484 7.68182 57.6234 7.74432 57.4302 7.80114C57.2408 7.85417 57.0211 7.90151 56.7711 7.94318C56.5249 7.98106 56.2843 8.01515 56.0495 8.04545C55.8184 8.07197 55.6309 8.0947 55.487 8.11364C55.1385 8.15909 54.8127 8.23295 54.5097 8.33523C54.2105 8.43371 53.968 8.58333 53.7824 8.78409C53.6006 8.98106 53.5097 9.25 53.5097 9.59091C53.5097 10.0568 53.6821 10.4091 54.0268 10.6477C54.3752 10.8826 54.8165 11 55.3506 11ZM66.5953 12V0.363636H67.9362V4.65909H68.0499C68.1484 4.50758 68.2847 4.31439 68.459 4.07955C68.637 3.84091 68.8908 3.62879 69.2203 3.44318C69.5537 3.25379 70.0044 3.15909 70.5726 3.15909C71.3075 3.15909 71.9552 3.3428 72.5158 3.71023C73.0764 4.07765 73.5139 4.59848 73.8283 5.27273C74.1427 5.94697 74.2999 6.74242 74.2999 7.65909C74.2999 8.58333 74.1427 9.38447 73.8283 10.0625C73.5139 10.7367 73.0783 11.2595 72.5215 11.6307C71.9647 11.9981 71.3226 12.1818 70.5953 12.1818C70.0347 12.1818 69.5859 12.089 69.2487 11.9034C68.9116 11.714 68.6522 11.5 68.4703 11.2614C68.2885 11.0189 68.1484 10.8182 68.0499 10.6591H67.8908V12H66.5953ZM67.9135 7.63636C67.9135 8.29545 68.0101 8.87689 68.2033 9.38068C68.3965 9.88068 68.6787 10.2727 69.0499 10.5568C69.4211 10.8371 69.8756 10.9773 70.4135 10.9773C70.9741 10.9773 71.4419 10.8295 71.8169 10.5341C72.1957 10.2348 72.4798 9.83333 72.6692 9.32955C72.8624 8.82197 72.959 8.25758 72.959 7.63636C72.959 7.02273 72.8643 6.4697 72.6749 5.97727C72.4893 5.48106 72.2071 5.08902 71.8283 4.80114C71.4533 4.50947 70.9817 4.36364 70.4135 4.36364C69.8681 4.36364 69.4097 4.50189 69.0385 4.77841C68.6673 5.05114 68.387 5.43371 68.1976 5.92614C68.0082 6.41477 67.9135 6.98485 67.9135 7.63636ZM82.011 8.43182V3.27273H83.3519V12H82.011V10.5227H81.9201C81.7156 10.9659 81.3974 11.3428 80.9656 11.6534C80.5338 11.9602 79.9883 12.1136 79.3292 12.1136C78.7838 12.1136 78.2989 11.9943 77.8747 11.7557C77.4504 11.5133 77.1171 11.1496 76.8747 10.6648C76.6322 10.1761 76.511 9.56061 76.511 8.81818V3.27273H77.8519V8.72727C77.8519 9.36364 78.03 9.87121 78.386 10.25C78.7459 10.6288 79.2042 10.8182 79.761 10.8182C80.0944 10.8182 80.4334 10.733 80.7781 10.5625C81.1266 10.392 81.4182 10.1307 81.6531 9.77841C81.8917 9.42614 82.011 8.97727 82.011 8.43182ZM89.4906 15.4545C88.8429 15.4545 88.2861 15.3712 87.8202 15.2045C87.3543 15.0417 86.966 14.8258 86.6554 14.5568C86.3486 14.2917 86.1043 14.0076 85.9224 13.7045L86.9906 12.9545C87.1118 13.1136 87.2652 13.2955 87.4509 13.5C87.6365 13.7083 87.8902 13.8883 88.2122 14.0398C88.538 14.1951 88.9641 14.2727 89.4906 14.2727C90.1952 14.2727 90.7766 14.1023 91.2349 13.7614C91.6933 13.4205 91.9224 12.8864 91.9224 12.1591V10.3864H91.8088C91.7103 10.5455 91.5702 10.7424 91.3884 10.9773C91.2103 11.2083 90.9527 11.4148 90.6156 11.5966C90.2823 11.7746 89.8315 11.8636 89.2634 11.8636C88.5588 11.8636 87.9262 11.697 87.3656 11.3636C86.8088 11.0303 86.3675 10.5455 86.0418 9.90909C85.7198 9.27273 85.5588 8.5 85.5588 7.59091C85.5588 6.69697 85.716 5.91856 86.0304 5.25568C86.3448 4.58901 86.7823 4.07386 87.3429 3.71023C87.9035 3.3428 88.5512 3.15909 89.2861 3.15909C89.8543 3.15909 90.305 3.25379 90.6384 3.44318C90.9755 3.62879 91.233 3.84091 91.4111 4.07955C91.5929 4.31439 91.733 4.50758 91.8315 4.65909H91.9679V3.27273H93.2634V12.25C93.2634 13 93.0929 13.6098 92.752 14.0795C92.4149 14.553 91.9603 14.8996 91.3884 15.1193C90.8202 15.3428 90.1876 15.4545 89.4906 15.4545ZM89.4452 10.6591C89.983 10.6591 90.4376 10.536 90.8088 10.2898C91.18 10.0436 91.4622 9.68939 91.6554 9.22727C91.8486 8.76515 91.9452 8.21212 91.9452 7.56818C91.9452 6.93939 91.8505 6.38447 91.6611 5.90341C91.4717 5.42235 91.1914 5.04545 90.8202 4.77273C90.449 4.5 89.9906 4.36364 89.4452 4.36364C88.877 4.36364 88.4035 4.50758 88.0247 4.79545C87.6497 5.08333 87.3675 5.4697 87.1781 5.95455C86.9925 6.43939 86.8997 6.97727 86.8997 7.56818C86.8997 8.17424 86.9944 8.71023 87.1838 9.17614C87.377 9.63826 87.6611 10.0019 88.0361 10.267C88.4149 10.5284 88.8846 10.6591 89.4452 10.6591ZM97.6279 8.72727V8.65909C97.6355 7.93561 97.7112 7.35985 97.8552 6.93182C97.9991 6.50379 98.2037 6.1572 98.4688 5.89205C98.734 5.62689 99.0521 5.38258 99.4234 5.15909C99.6468 5.02273 99.8476 4.86174 100.026 4.67614C100.204 4.48674 100.344 4.26894 100.446 4.02273C100.552 3.77652 100.605 3.50379 100.605 3.20455C100.605 2.83333 100.518 2.51136 100.344 2.23864C100.17 1.96591 99.9366 1.75568 99.6449 1.60795C99.3533 1.46023 99.0294 1.38636 98.6734 1.38636C98.3627 1.38636 98.0635 1.45076 97.7756 1.57955C97.4877 1.70833 97.2472 1.91098 97.054 2.1875C96.8609 2.46401 96.7491 2.82576 96.7188 3.27273H95.287C95.3173 2.62879 95.484 2.07765 95.787 1.61932C96.0938 1.16098 96.4972 0.810606 96.9972 0.568181C97.501 0.325757 98.0597 0.204545 98.6734 0.204545C99.34 0.204545 99.9196 0.337121 100.412 0.602272C100.908 0.867424 101.291 1.23106 101.56 1.69318C101.832 2.1553 101.969 2.68182 101.969 3.27273C101.969 3.68939 101.904 4.06629 101.776 4.40341C101.651 4.74053 101.469 5.04167 101.23 5.30682C100.995 5.57197 100.711 5.80682 100.378 6.01136C100.045 6.2197 99.7775 6.43939 99.5768 6.67045C99.376 6.89773 99.2302 7.16856 99.1393 7.48295C99.0484 7.79735 98.9991 8.18939 98.9915 8.65909V8.72727H97.6279ZM98.3552 12.0909C98.0749 12.0909 97.8343 11.9905 97.6336 11.7898C97.4328 11.589 97.3324 11.3485 97.3324 11.0682C97.3324 10.7879 97.4328 10.5473 97.6336 10.3466C97.8343 10.1458 98.0749 10.0455 98.3552 10.0455C98.6355 10.0455 98.876 10.1458 99.0768 10.3466C99.2775 10.5473 99.3779 10.7879 99.3779 11.0682C99.3779 11.2538 99.3306 11.4242 99.2359 11.5795C99.1449 11.7348 99.0218 11.8598 98.8665 11.9545C98.715 12.0455 98.5446 12.0909 98.3552 12.0909Z" fill="#343233"/>
<path d="M108.148 2.39205V0.363636H117.705V2.39205H114.143V12H111.711V2.39205H108.148ZM120.695 12.1648C120.138 12.1648 119.642 12.0682 119.206 11.875C118.77 11.678 118.426 11.3883 118.172 11.0057C117.922 10.6193 117.797 10.1383 117.797 9.5625C117.797 9.07765 117.886 8.67045 118.064 8.34091C118.242 8.01136 118.484 7.74621 118.791 7.54545C119.098 7.3447 119.446 7.19318 119.837 7.09091C120.231 6.98864 120.643 6.91667 121.075 6.875C121.583 6.82197 121.992 6.77273 122.302 6.72727C122.613 6.67803 122.838 6.60606 122.979 6.51136C123.119 6.41667 123.189 6.27652 123.189 6.09091V6.05682C123.189 5.69697 123.075 5.41856 122.848 5.22159C122.624 5.02462 122.306 4.92614 121.893 4.92614C121.458 4.92614 121.111 5.02273 120.854 5.21591C120.596 5.4053 120.426 5.64394 120.342 5.93182L118.104 5.75C118.217 5.2197 118.441 4.76136 118.774 4.375C119.107 3.98485 119.537 3.68561 120.064 3.47727C120.594 3.26515 121.208 3.15909 121.905 3.15909C122.39 3.15909 122.854 3.21591 123.297 3.32955C123.744 3.44318 124.14 3.61932 124.484 3.85795C124.833 4.09659 125.107 4.40341 125.308 4.77841C125.509 5.14962 125.609 5.5947 125.609 6.11364V12H123.314V10.7898H123.246C123.106 11.0625 122.918 11.303 122.683 11.5114C122.448 11.7159 122.166 11.8769 121.837 11.9943C121.507 12.108 121.126 12.1648 120.695 12.1648ZM121.388 10.4943C121.744 10.4943 122.058 10.4242 122.331 10.2841C122.604 10.1402 122.818 9.94697 122.973 9.70455C123.128 9.46212 123.206 9.1875 123.206 8.88068V7.95455C123.13 8.00379 123.026 8.04924 122.893 8.09091C122.765 8.12879 122.619 8.16477 122.456 8.19886C122.293 8.22917 122.13 8.25758 121.967 8.28409C121.804 8.30682 121.657 8.32765 121.524 8.34659C121.24 8.38826 120.992 8.45455 120.78 8.54545C120.568 8.63636 120.403 8.75947 120.285 8.91477C120.168 9.06629 120.109 9.25568 120.109 9.48295C120.109 9.8125 120.229 10.0644 120.467 10.2386C120.71 10.4091 121.017 10.4943 121.388 10.4943ZM130.068 0.363636V12H127.647V0.363636H130.068ZM134.36 9.48864L134.365 6.58523H134.718L137.513 3.27273H140.292L136.536 7.65909H135.962L134.36 9.48864ZM132.167 12V0.363636H134.587V12H132.167ZM137.621 12L135.053 8.19886L136.667 6.48864L140.456 12H137.621ZM150.144 3.27273V5.09091H144.889V3.27273H150.144ZM146.082 1.18182H148.502V9.31818C148.502 9.54167 148.536 9.71591 148.604 9.84091C148.673 9.96212 148.767 10.0473 148.889 10.0966C149.014 10.1458 149.157 10.1705 149.32 10.1705C149.434 10.1705 149.548 10.161 149.661 10.142C149.775 10.1193 149.862 10.1023 149.923 10.0909L150.303 11.892C150.182 11.9299 150.012 11.9735 149.792 12.0227C149.572 12.0758 149.305 12.108 148.991 12.1193C148.407 12.142 147.896 12.0644 147.457 11.8864C147.021 11.7083 146.682 11.4318 146.44 11.0568C146.197 10.6818 146.078 10.2083 146.082 9.63636V1.18182ZM155.73 12.1705C154.848 12.1705 154.085 11.983 153.441 11.608C152.8 11.2292 152.306 10.7027 151.958 10.0284C151.609 9.35038 151.435 8.56439 151.435 7.67045C151.435 6.76894 151.609 5.98106 151.958 5.30682C152.306 4.62879 152.8 4.10227 153.441 3.72727C154.085 3.34848 154.848 3.15909 155.73 3.15909C156.613 3.15909 157.374 3.34848 158.014 3.72727C158.658 4.10227 159.155 4.62879 159.503 5.30682C159.852 5.98106 160.026 6.76894 160.026 7.67045C160.026 8.56439 159.852 9.35038 159.503 10.0284C159.155 10.7027 158.658 11.2292 158.014 11.608C157.374 11.983 156.613 12.1705 155.73 12.1705ZM155.742 10.2955C156.143 10.2955 156.478 10.1818 156.747 9.95455C157.016 9.72348 157.219 9.40909 157.355 9.01136C157.495 8.61364 157.566 8.16098 157.566 7.65341C157.566 7.14583 157.495 6.69318 157.355 6.29545C157.219 5.89773 157.016 5.58333 156.747 5.35227C156.478 5.12121 156.143 5.00568 155.742 5.00568C155.336 5.00568 154.995 5.12121 154.719 5.35227C154.446 5.58333 154.24 5.89773 154.1 6.29545C153.963 6.69318 153.895 7.14583 153.895 7.65341C153.895 8.16098 153.963 8.61364 154.1 9.01136C154.24 9.40909 154.446 9.72348 154.719 9.95455C154.995 10.1818 155.336 10.2955 155.742 10.2955ZM171.219 8.28409V3.27273H173.64V12H171.316V10.4148H171.225C171.028 10.9261 170.7 11.3371 170.242 11.6477C169.788 11.9583 169.233 12.1136 168.577 12.1136C167.994 12.1136 167.481 11.9811 167.038 11.7159C166.594 11.4508 166.248 11.0739 165.998 10.5852C165.752 10.0966 165.627 9.51136 165.623 8.82955V3.27273H168.043V8.39773C168.047 8.91288 168.185 9.32008 168.458 9.61932C168.731 9.91856 169.096 10.0682 169.555 10.0682C169.846 10.0682 170.119 10.0019 170.373 9.86932C170.627 9.73295 170.831 9.5322 170.986 9.26705C171.146 9.00189 171.223 8.67424 171.219 8.28409ZM182.997 5.76136L180.781 5.89773C180.743 5.70833 180.662 5.53788 180.537 5.38636C180.412 5.23106 180.247 5.10795 180.043 5.01705C179.842 4.92235 179.601 4.875 179.321 4.875C178.946 4.875 178.63 4.95455 178.372 5.11364C178.115 5.26894 177.986 5.47727 177.986 5.73864C177.986 5.94697 178.069 6.12311 178.236 6.26705C178.403 6.41098 178.689 6.52652 179.094 6.61364L180.673 6.93182C181.522 7.10606 182.154 7.38636 182.571 7.77273C182.988 8.15909 183.196 8.66667 183.196 9.29545C183.196 9.86742 183.028 10.3693 182.69 10.8011C182.357 11.233 181.899 11.5701 181.315 11.8125C180.736 12.0511 180.067 12.1705 179.31 12.1705C178.154 12.1705 177.234 11.9299 176.548 11.4489C175.867 10.964 175.467 10.3049 175.35 9.47159L177.73 9.34659C177.802 9.69886 177.976 9.9678 178.253 10.1534C178.529 10.3352 178.884 10.4261 179.315 10.4261C179.74 10.4261 180.081 10.3447 180.338 10.1818C180.6 10.0152 180.732 9.80114 180.736 9.53977C180.732 9.32008 180.639 9.14015 180.458 9C180.276 8.85606 179.995 8.74621 179.617 8.67045L178.105 8.36932C177.253 8.19886 176.618 7.90341 176.202 7.48295C175.789 7.0625 175.583 6.52652 175.583 5.875C175.583 5.31439 175.734 4.83144 176.037 4.42614C176.344 4.02083 176.774 3.70833 177.327 3.48864C177.884 3.26894 178.535 3.15909 179.281 3.15909C180.384 3.15909 181.251 3.39205 181.884 3.85795C182.52 4.32386 182.891 4.95833 182.997 5.76136Z" fill="white"/>
</svg>
