<svg width="121" height="20" viewBox="0 0 121 20" fill="none" xmlns="http://www.w3.org/2000/svg">
<path d="M14.8487 19H11.233V11.4794H4.18245V19H0.566787V1.45198H4.18245V8.56279H11.233V1.45198H14.8487V19ZM25.3461 19C25.1854 18.6866 25.0689 18.297 24.9966 17.8309C24.153 18.771 23.0562 19.241 21.7064 19.241C20.4288 19.241 19.3682 18.8714 18.5246 18.1322C17.689 17.393 17.2711 16.461 17.2711 15.3361C17.2711 13.9541 17.7814 12.8935 18.8018 12.1543C19.8302 11.4151 21.3127 11.0415 23.249 11.0335H24.852V10.2863C24.852 9.68364 24.6953 9.20155 24.382 8.83999C24.0766 8.47842 23.5905 8.29764 22.9236 8.29764C22.3371 8.29764 21.8751 8.43825 21.5376 8.71947C21.2082 9.00068 21.0435 9.38635 21.0435 9.87648H17.5604C17.5604 9.12121 17.7934 8.42218 18.2594 7.77939C18.7254 7.13661 19.3843 6.63443 20.236 6.27287C21.0877 5.90327 22.0438 5.71847 23.1044 5.71847C24.7114 5.71847 25.9849 6.12422 26.925 6.93574C27.8731 7.73922 28.3471 8.87213 28.3471 10.3345V15.9869C28.3552 17.2243 28.5279 18.1604 28.8654 18.7951V19H25.3461ZM22.4657 16.5775C22.9799 16.5775 23.4539 16.465 23.8878 16.24C24.3217 16.007 24.6431 15.6977 24.852 15.312V13.0703H23.5504C21.8068 13.0703 20.8788 13.6729 20.7663 14.8781L20.7542 15.083C20.7542 15.5169 20.9069 15.8745 21.2122 16.1557C21.5175 16.4369 21.9354 16.5775 22.4657 16.5775ZM34.2286 5.95951L34.3371 7.46604C35.2691 6.30099 36.5185 5.71847 38.0853 5.71847C39.4673 5.71847 40.4958 6.12422 41.1707 6.93574C41.8456 7.74725 42.1911 8.96051 42.2072 10.5755V19H38.7241V10.6599C38.7241 9.92067 38.5634 9.38635 38.242 9.05693C37.9206 8.71947 37.3863 8.55073 36.639 8.55073C35.6588 8.55073 34.9236 8.96854 34.4335 9.80416V19H30.9504V5.95951H34.2286ZM44.3163 12.3833C44.3163 10.3505 44.7703 8.73152 45.6782 7.5263C46.5942 6.32108 47.8436 5.71847 49.4264 5.71847C50.6959 5.71847 51.7445 6.19252 52.5721 7.14063V0.487807H56.0672V19H52.9216L52.7529 17.614C51.8851 18.6987 50.7683 19.241 49.4023 19.241C47.8677 19.241 46.6343 18.6384 45.7023 17.4332C44.7783 16.22 44.3163 14.5367 44.3163 12.3833ZM47.7994 12.6364C47.7994 13.8577 48.0123 14.7938 48.4382 15.4446C48.864 16.0954 49.4827 16.4208 50.2942 16.4208C51.3709 16.4208 52.1302 15.9669 52.5721 15.0589V9.91263C52.1382 9.0047 51.3869 8.55073 50.3183 8.55073C48.639 8.55073 47.7994 9.91263 47.7994 12.6364ZM58.9959 19V1.45198H65.1425C67.2717 1.45198 68.8867 1.86176 69.9875 2.68131C71.0883 3.49282 71.6387 4.68599 71.6387 6.26081C71.6387 7.12054 71.4177 7.87983 70.9758 8.53868C70.5339 9.1895 69.9192 9.66757 69.1318 9.9729C70.0317 10.1979 70.7388 10.6518 71.253 11.3348C71.7753 12.0178 72.0364 12.8534 72.0364 13.8417C72.0364 15.529 71.4981 16.8065 70.4214 17.6743C69.3447 18.542 67.8101 18.9839 65.8174 19H58.9959ZM62.6116 11.3589V16.0954H65.709C66.5607 16.0954 67.2235 15.8945 67.6976 15.4928C68.1797 15.083 68.4207 14.5206 68.4207 13.8055C68.4207 12.1985 67.5891 11.383 65.9259 11.3589H62.6116ZM62.6116 8.80383H65.2871C67.111 8.77169 68.023 8.04454 68.023 6.62238C68.023 5.82694 67.79 5.25646 67.324 4.91097C66.866 4.55744 66.1388 4.38067 65.1425 4.38067H62.6116V8.80383ZM81.8589 9.22566C81.3849 9.16138 80.9671 9.12924 80.6055 9.12924C79.2878 9.12924 78.4241 9.57517 78.0143 10.467V19H74.5312V5.95951H77.8214L77.9179 7.51424C78.6169 6.31706 79.5851 5.71847 80.8224 5.71847C81.2081 5.71847 81.5697 5.77069 81.9071 5.87514L81.8589 9.22566ZM90.7414 19C90.5807 18.6866 90.4642 18.297 90.3919 17.8309C89.5482 18.771 88.4515 19.241 87.1016 19.241C85.8241 19.241 84.7635 18.8714 83.9199 18.1322C83.0842 17.393 82.6664 16.461 82.6664 15.3361C82.6664 13.9541 83.1766 12.8935 84.1971 12.1543C85.2255 11.4151 86.7079 11.0415 88.6443 11.0335H90.2473V10.2863C90.2473 9.68364 90.0906 9.20155 89.7772 8.83999C89.4719 8.47842 88.9858 8.29764 88.3189 8.29764C87.7324 8.29764 87.2704 8.43825 86.9329 8.71947C86.6035 9.00068 86.4388 9.38635 86.4388 9.87648H82.9557C82.9557 9.12121 83.1887 8.42218 83.6547 7.77939C84.1207 7.13661 84.7796 6.63443 85.6313 6.27287C86.483 5.90327 87.4391 5.71847 88.4997 5.71847C90.1067 5.71847 91.3802 6.12422 92.3203 6.93574C93.2684 7.73922 93.7424 8.87213 93.7424 10.3345V15.9869C93.7505 17.2243 93.9232 18.1604 94.2607 18.7951V19H90.7414ZM87.8609 16.5775C88.3752 16.5775 88.8492 16.465 89.2831 16.24C89.717 16.007 90.0384 15.6977 90.2473 15.312V13.0703H88.9456C87.2021 13.0703 86.2741 13.6729 86.1616 14.8781L86.1495 15.083C86.1495 15.5169 86.3022 15.8745 86.6075 16.1557C86.9128 16.4369 87.3306 16.5775 87.8609 16.5775ZM101.155 13.7693L99.9011 15.0228V19H96.418V0.487807H99.9011V10.7442L100.576 9.87648L103.914 5.95951H108.097L103.384 11.3951L108.506 19H104.505L101.155 13.7693ZM115.364 19.241C113.452 19.241 111.893 18.6545 110.688 17.4814C109.491 16.3083 108.892 14.7456 108.892 12.7931V12.4557C108.892 11.146 109.145 9.97691 109.651 8.94846C110.158 7.91197 110.873 7.11652 111.797 6.56212C112.729 5.99968 113.789 5.71847 114.978 5.71847C116.762 5.71847 118.164 6.2809 119.185 7.40577C120.213 8.53065 120.727 10.1256 120.727 12.1905V13.6127H112.423C112.536 14.4644 112.873 15.1473 113.436 15.6615C114.006 16.1758 114.725 16.4329 115.593 16.4329C116.935 16.4329 117.983 15.9468 118.739 14.9746L120.45 16.8909C119.928 17.6301 119.221 18.2086 118.329 18.6264C117.437 19.0362 116.449 19.241 115.364 19.241ZM114.966 8.53868C114.275 8.53868 113.713 8.77169 113.279 9.23771C112.853 9.70373 112.58 10.3706 112.459 11.2384H117.304V10.9612C117.288 10.1898 117.08 9.59526 116.678 9.17745C116.276 8.7516 115.706 8.53868 114.966 8.53868Z" fill="#25468A"/>
</svg>
