<svg width="442" height="71" viewBox="0 0 442 71" fill="none" xmlns="http://www.w3.org/2000/svg">
<path d="M44.459 31.2324V41.7441H10.3184V31.2324H44.459ZM14.3164 4.59375V70H0.839844V4.59375H14.3164ZM54.0723 4.59375V70H40.6406V4.59375H54.0723ZM91.2227 59.0391V37.3867C91.2227 35.8294 90.9681 34.4967 90.459 33.3887C89.9499 32.2507 89.1562 31.3672 88.0781 30.7383C87.0299 30.1094 85.6673 29.7949 83.9902 29.7949C82.5527 29.7949 81.3099 30.0495 80.2617 30.5586C79.2135 31.0378 78.4049 31.7415 77.8359 32.6699C77.2669 33.5684 76.9824 34.6315 76.9824 35.8594H64.0449C64.0449 33.793 64.5241 31.8314 65.4824 29.9746C66.4408 28.1178 67.8333 26.4857 69.6602 25.0781C71.487 23.6406 73.6582 22.5176 76.1738 21.709C78.7194 20.9004 81.5645 20.4961 84.709 20.4961C88.4824 20.4961 91.8366 21.125 94.7715 22.3828C97.7064 23.6406 100.012 25.5273 101.689 28.043C103.396 30.5586 104.25 33.7031 104.25 37.4766V58.2754C104.25 60.9408 104.415 63.127 104.744 64.834C105.074 66.5111 105.553 67.9785 106.182 69.2363V70H93.1094C92.4805 68.6823 92.0013 67.0352 91.6719 65.0586C91.3724 63.0521 91.2227 61.0456 91.2227 59.0391ZM92.9297 40.3965L93.0195 47.7188H85.7871C84.0801 47.7188 82.5977 47.9134 81.3398 48.3027C80.082 48.6921 79.0488 49.2461 78.2402 49.9648C77.4316 50.6536 76.8327 51.4622 76.4434 52.3906C76.084 53.319 75.9043 54.3372 75.9043 55.4453C75.9043 56.5534 76.1589 57.5566 76.668 58.4551C77.1771 59.3236 77.9108 60.0124 78.8691 60.5215C79.8275 61.0007 80.9505 61.2402 82.2383 61.2402C84.1849 61.2402 85.877 60.8509 87.3145 60.0723C88.752 59.2936 89.86 58.3353 90.6387 57.1973C91.4473 56.0592 91.8665 54.9811 91.8965 53.9629L95.3105 59.4434C94.8314 60.6712 94.1725 61.944 93.334 63.2617C92.5254 64.5794 91.4922 65.8223 90.2344 66.9902C88.9766 68.1283 87.4642 69.0716 85.6973 69.8203C83.9303 70.5391 81.834 70.8984 79.4082 70.8984C76.3236 70.8984 73.5234 70.2845 71.0078 69.0566C68.5221 67.7988 66.5456 66.0768 65.0781 63.8906C63.6406 61.6745 62.9219 59.1589 62.9219 56.3438C62.9219 53.7982 63.401 51.5371 64.3594 49.5605C65.3177 47.584 66.7253 45.9219 68.582 44.5742C70.4688 43.1966 72.8197 42.1634 75.6348 41.4746C78.4499 40.7559 81.7142 40.3965 85.4277 40.3965H92.9297ZM126.891 31.7715V70H113.953V21.3945H126.082L126.891 31.7715ZM125.004 43.9902H121.5C121.5 40.3965 121.964 37.1621 122.893 34.2871C123.821 31.3822 125.124 28.9115 126.801 26.875C128.478 24.8086 130.469 23.2363 132.775 22.1582C135.111 21.0501 137.717 20.4961 140.592 20.4961C142.868 20.4961 144.949 20.8255 146.836 21.4844C148.723 22.1432 150.34 23.1914 151.688 24.6289C153.065 26.0664 154.113 27.9681 154.832 30.334C155.581 32.6999 155.955 35.5898 155.955 39.0039V70H142.928V38.959C142.928 36.8027 142.628 35.1257 142.029 33.9277C141.43 32.7298 140.547 31.8913 139.379 31.4121C138.241 30.903 136.833 30.6484 135.156 30.6484C133.419 30.6484 131.907 30.9928 130.619 31.6816C129.361 32.3704 128.313 33.3288 127.475 34.5566C126.666 35.7546 126.052 37.1621 125.633 38.7793C125.214 40.3965 125.004 42.1335 125.004 43.9902ZM194.498 59.3984V1H207.525V70H195.801L194.498 59.3984ZM163.771 46.2812V45.3379C163.771 41.6243 164.191 38.2552 165.029 35.2305C165.868 32.1758 167.096 29.5553 168.713 27.3691C170.33 25.1829 172.322 23.4909 174.688 22.293C177.053 21.0951 179.749 20.4961 182.773 20.4961C185.618 20.4961 188.104 21.0951 190.23 22.293C192.387 23.4909 194.214 25.1979 195.711 27.4141C197.238 29.6003 198.466 32.1908 199.395 35.1855C200.323 38.1504 200.997 41.3997 201.416 44.9336V47C200.997 50.3841 200.323 53.5286 199.395 56.4336C198.466 59.3385 197.238 61.8841 195.711 64.0703C194.214 66.2266 192.387 67.9036 190.23 69.1016C188.074 70.2995 185.559 70.8984 182.684 70.8984C179.659 70.8984 176.964 70.2845 174.598 69.0566C172.262 67.8288 170.285 66.1068 168.668 63.8906C167.081 61.6745 165.868 59.069 165.029 56.0742C164.191 53.0794 163.771 49.8151 163.771 46.2812ZM176.709 45.3379V46.2812C176.709 48.2878 176.859 50.1595 177.158 51.8965C177.488 53.6335 178.012 55.1758 178.73 56.5234C179.479 57.8411 180.438 58.8743 181.605 59.623C182.803 60.3418 184.256 60.7012 185.963 60.7012C188.179 60.7012 190.006 60.207 191.443 59.2188C192.881 58.2005 193.974 56.8079 194.723 55.041C195.501 53.2741 195.951 51.2376 196.07 48.9316V43.0469C195.98 41.1602 195.711 39.4681 195.262 37.9707C194.842 36.4434 194.214 35.1406 193.375 34.0625C192.566 32.9844 191.548 32.1458 190.32 31.5469C189.122 30.9479 187.7 30.6484 186.053 30.6484C184.376 30.6484 182.938 31.0378 181.74 31.8164C180.542 32.5651 179.569 33.5983 178.82 34.916C178.102 36.2337 177.562 37.791 177.203 39.5879C176.874 41.3548 176.709 43.2715 176.709 45.3379ZM217.633 1H230.57V58.8594L229.268 70H217.633V1ZM261.342 45.2031V46.1465C261.342 49.7702 260.952 53.0944 260.174 56.1191C259.425 59.1439 258.257 61.7643 256.67 63.9805C255.083 66.1667 253.106 67.8737 250.74 69.1016C248.404 70.2995 245.649 70.8984 242.475 70.8984C239.51 70.8984 236.934 70.2995 234.748 69.1016C232.592 67.9036 230.78 66.2116 229.312 64.0254C227.845 61.8392 226.662 59.2786 225.764 56.3438C224.865 53.4089 224.191 50.2044 223.742 46.7305V44.6641C224.191 41.1901 224.865 37.9857 225.764 35.0508C226.662 32.1159 227.845 29.5553 229.312 27.3691C230.78 25.1829 232.592 23.4909 234.748 22.293C236.904 21.0951 239.45 20.4961 242.385 20.4961C245.589 20.4961 248.374 21.11 250.74 22.3379C253.136 23.5358 255.113 25.2428 256.67 27.459C258.257 29.6452 259.425 32.2507 260.174 35.2754C260.952 38.2702 261.342 41.5794 261.342 45.2031ZM248.404 46.1465V45.2031C248.404 43.2266 248.255 41.3698 247.955 39.6328C247.686 37.8659 247.206 36.3236 246.518 35.0059C245.829 33.6582 244.885 32.5951 243.688 31.8164C242.52 31.0378 241.007 30.6484 239.15 30.6484C237.383 30.6484 235.886 30.9479 234.658 31.5469C233.43 32.1458 232.412 32.9844 231.604 34.0625C230.825 35.1406 230.241 36.4284 229.852 37.9258C229.462 39.3932 229.223 41.0104 229.133 42.7773V48.6621C229.223 51.028 229.612 53.1243 230.301 54.9512C231.02 56.748 232.098 58.1706 233.535 59.2188C235.003 60.237 236.904 60.7461 239.24 60.7461C241.067 60.7461 242.579 60.3867 243.777 59.668C244.975 58.9492 245.904 57.931 246.562 56.6133C247.251 55.2956 247.73 53.7533 248 51.9863C248.27 50.1895 248.404 48.2428 248.404 46.1465ZM282.32 31.9961V70H269.383V21.3945H281.557L282.32 31.9961ZM296.965 21.0801L296.74 33.0742C296.111 32.9844 295.348 32.9095 294.449 32.8496C293.581 32.7598 292.787 32.7148 292.068 32.7148C290.242 32.7148 288.654 32.9544 287.307 33.4336C285.989 33.8828 284.881 34.5566 283.982 35.4551C283.114 36.3535 282.455 37.4466 282.006 38.7344C281.587 40.0221 281.347 41.4896 281.287 43.1367L278.682 42.3281C278.682 39.1836 278.996 36.2936 279.625 33.6582C280.254 30.9928 281.167 28.6719 282.365 26.6953C283.593 24.7188 285.09 23.1914 286.857 22.1133C288.624 21.0352 290.646 20.4961 292.922 20.4961C293.641 20.4961 294.374 20.556 295.123 20.6758C295.872 20.7656 296.486 20.9004 296.965 21.0801ZM327.781 59.0391V37.3867C327.781 35.8294 327.527 34.4967 327.018 33.3887C326.508 32.2507 325.715 31.3672 324.637 30.7383C323.589 30.1094 322.226 29.7949 320.549 29.7949C319.111 29.7949 317.868 30.0495 316.82 30.5586C315.772 31.0378 314.964 31.7415 314.395 32.6699C313.826 33.5684 313.541 34.6315 313.541 35.8594H300.604C300.604 33.793 301.083 31.8314 302.041 29.9746C302.999 28.1178 304.392 26.4857 306.219 25.0781C308.046 23.6406 310.217 22.5176 312.732 21.709C315.278 20.9004 318.123 20.4961 321.268 20.4961C325.041 20.4961 328.395 21.125 331.33 22.3828C334.265 23.6406 336.571 25.5273 338.248 28.043C339.955 30.5586 340.809 33.7031 340.809 37.4766V58.2754C340.809 60.9408 340.973 63.127 341.303 64.834C341.632 66.5111 342.111 67.9785 342.74 69.2363V70H329.668C329.039 68.6823 328.56 67.0352 328.23 65.0586C327.931 63.0521 327.781 61.0456 327.781 59.0391ZM329.488 40.3965L329.578 47.7188H322.346C320.639 47.7188 319.156 47.9134 317.898 48.3027C316.641 48.6921 315.607 49.2461 314.799 49.9648C313.99 50.6536 313.391 51.4622 313.002 52.3906C312.643 53.319 312.463 54.3372 312.463 55.4453C312.463 56.5534 312.717 57.5566 313.227 58.4551C313.736 59.3236 314.469 60.0124 315.428 60.5215C316.386 61.0007 317.509 61.2402 318.797 61.2402C320.743 61.2402 322.436 60.8509 323.873 60.0723C325.311 59.2936 326.419 58.3353 327.197 57.1973C328.006 56.0592 328.425 54.9811 328.455 53.9629L331.869 59.4434C331.39 60.6712 330.731 61.944 329.893 63.2617C329.084 64.5794 328.051 65.8223 326.793 66.9902C325.535 68.1283 324.023 69.0716 322.256 69.8203C320.489 70.5391 318.393 70.8984 315.967 70.8984C312.882 70.8984 310.082 70.2845 307.566 69.0566C305.081 67.7988 303.104 66.0768 301.637 63.8906C300.199 61.6745 299.48 59.1589 299.48 56.3438C299.48 53.7982 299.96 51.5371 300.918 49.5605C301.876 47.584 303.284 45.9219 305.141 44.5742C307.027 43.1966 309.378 42.1634 312.193 41.4746C315.008 40.7559 318.273 40.3965 321.986 40.3965H329.488ZM363.719 0.955078V70H350.781V0.955078H363.719ZM394.355 21.3945L373.242 45.4727L361.922 56.9277L357.205 47.584L366.189 36.1738L378.812 21.3945H394.355ZM380.924 70L366.549 47.5391L375.488 39.7227L395.838 70H380.924ZM421.398 70.8984C417.625 70.8984 414.241 70.2995 411.246 69.1016C408.251 67.8737 405.706 66.1816 403.609 64.0254C401.543 61.8691 399.956 59.3685 398.848 56.5234C397.74 53.6484 397.186 50.5938 397.186 47.3594V45.5625C397.186 41.8789 397.71 38.5098 398.758 35.4551C399.806 32.4004 401.303 29.75 403.25 27.5039C405.227 25.2578 407.622 23.5358 410.438 22.3379C413.253 21.11 416.427 20.4961 419.961 20.4961C423.405 20.4961 426.46 21.0651 429.125 22.2031C431.79 23.3411 434.021 24.9583 435.818 27.0547C437.645 29.151 439.023 31.6667 439.951 34.6016C440.88 37.5065 441.344 40.7409 441.344 44.3047V49.6953H402.711V41.0703H428.631V40.082C428.631 38.2852 428.301 36.6829 427.643 35.2754C427.014 33.8379 426.055 32.6999 424.768 31.8613C423.48 31.0228 421.833 30.6035 419.826 30.6035C418.119 30.6035 416.652 30.9779 415.424 31.7266C414.196 32.4753 413.193 33.5234 412.414 34.8711C411.665 36.2188 411.096 37.806 410.707 39.6328C410.348 41.4297 410.168 43.4062 410.168 45.5625V47.3594C410.168 49.306 410.438 51.1029 410.977 52.75C411.546 54.3971 412.339 55.8197 413.357 57.0176C414.406 58.2155 415.663 59.1439 417.131 59.8027C418.628 60.4616 420.32 60.791 422.207 60.791C424.543 60.791 426.714 60.3418 428.721 59.4434C430.757 58.515 432.509 57.1224 433.977 55.2656L440.266 62.0938C439.247 63.5612 437.855 64.9688 436.088 66.3164C434.351 67.6641 432.255 68.7721 429.799 69.6406C427.343 70.4792 424.543 70.8984 421.398 70.8984Z" fill="#25468A"/>
</svg>
