<svg width="431" height="20" viewBox="0 0 431 20" fill="none" xmlns="http://www.w3.org/2000/svg">
<path d="M10.7727 8H9.36364C9.2803 7.5947 9.13447 7.23864 8.92614 6.93182C8.72159 6.625 8.47159 6.36742 8.17614 6.15909C7.88447 5.94697 7.56061 5.78788 7.20455 5.68182C6.84849 5.57576 6.47727 5.52273 6.09091 5.52273C5.38636 5.52273 4.74811 5.70076 4.17614 6.05682C3.60795 6.41288 3.1553 6.9375 2.81818 7.63068C2.48485 8.32386 2.31818 9.17424 2.31818 10.1818C2.31818 11.1894 2.48485 12.0398 2.81818 12.733C3.1553 13.4261 3.60795 13.9508 4.17614 14.3068C4.74811 14.6629 5.38636 14.8409 6.09091 14.8409C6.47727 14.8409 6.84849 14.7879 7.20455 14.6818C7.56061 14.5758 7.88447 14.4186 8.17614 14.2102C8.47159 13.9981 8.72159 13.7386 8.92614 13.4318C9.13447 13.1212 9.2803 12.7652 9.36364 12.3636H10.7727C10.6667 12.9583 10.4735 13.4905 10.1932 13.9602C9.91288 14.4299 9.56439 14.8295 9.14773 15.1591C8.73106 15.4848 8.26326 15.733 7.74432 15.9034C7.22917 16.0739 6.67803 16.1591 6.09091 16.1591C5.09849 16.1591 4.21591 15.9167 3.44318 15.4318C2.67045 14.947 2.0625 14.2576 1.61932 13.3636C1.17614 12.4697 0.954545 11.4091 0.954545 10.1818C0.954545 8.95455 1.17614 7.89394 1.61932 7C2.0625 6.10606 2.67045 5.41667 3.44318 4.93182C4.21591 4.44697 5.09849 4.20455 6.09091 4.20455C6.67803 4.20455 7.22917 4.28977 7.74432 4.46023C8.26326 4.63068 8.73106 4.88068 9.14773 5.21023C9.56439 5.53598 9.91288 5.93371 10.1932 6.40341C10.4735 6.86932 10.6667 7.40151 10.7727 8ZM16.5734 16.1818C15.7855 16.1818 15.0942 15.9943 14.4995 15.6193C13.9086 15.2443 13.4465 14.7197 13.1131 14.0455C12.7836 13.3712 12.6188 12.5833 12.6188 11.6818C12.6188 10.7727 12.7836 9.97917 13.1131 9.30114C13.4465 8.62311 13.9086 8.09659 14.4995 7.72159C15.0942 7.34659 15.7855 7.15909 16.5734 7.15909C17.3612 7.15909 18.0506 7.34659 18.6415 7.72159C19.2362 8.09659 19.6984 8.62311 20.0279 9.30114C20.3612 9.97917 20.5279 10.7727 20.5279 11.6818C20.5279 12.5833 20.3612 13.3712 20.0279 14.0455C19.6984 14.7197 19.2362 15.2443 18.6415 15.6193C18.0506 15.9943 17.3612 16.1818 16.5734 16.1818ZM16.5734 14.9773C17.1718 14.9773 17.6643 14.8239 18.0506 14.517C18.437 14.2102 18.723 13.8068 18.9086 13.3068C19.0942 12.8068 19.187 12.2652 19.187 11.6818C19.187 11.0985 19.0942 10.5549 18.9086 10.0511C18.723 9.54735 18.437 9.14015 18.0506 8.82955C17.6643 8.51894 17.1718 8.36364 16.5734 8.36364C15.9749 8.36364 15.4824 8.51894 15.0961 8.82955C14.7097 9.14015 14.4237 9.54735 14.2381 10.0511C14.0525 10.5549 13.9597 11.0985 13.9597 11.6818C13.9597 12.2652 14.0525 12.8068 14.2381 13.3068C14.4237 13.8068 14.7097 14.2102 15.0961 14.517C15.4824 14.8239 15.9749 14.9773 16.5734 14.9773ZM22.7348 19.2727V7.27273H24.0302V8.65909H24.1893C24.2878 8.50758 24.4242 8.31439 24.5984 8.07955C24.7764 7.84091 25.0302 7.62879 25.3598 7.44318C25.6931 7.25379 26.1439 7.15909 26.712 7.15909C27.4469 7.15909 28.0946 7.3428 28.6552 7.71023C29.2158 8.07765 29.6533 8.59848 29.9677 9.27273C30.2821 9.94697 30.4393 10.7424 30.4393 11.6591C30.4393 12.5833 30.2821 13.3845 29.9677 14.0625C29.6533 14.7367 29.2177 15.2595 28.6609 15.6307C28.1041 15.9981 27.462 16.1818 26.7348 16.1818C26.1742 16.1818 25.7253 16.089 25.3882 15.9034C25.0511 15.714 24.7916 15.5 24.6098 15.2614C24.428 15.0189 24.2878 14.8182 24.1893 14.6591H24.0757V19.2727H22.7348ZM24.053 11.6364C24.053 12.2955 24.1495 12.8769 24.3427 13.3807C24.5359 13.8807 24.8181 14.2727 25.1893 14.5568C25.5605 14.8371 26.0151 14.9773 26.553 14.9773C27.1136 14.9773 27.5814 14.8295 27.9564 14.5341C28.3352 14.2348 28.6192 13.8333 28.8086 13.3295C29.0018 12.822 29.0984 12.2576 29.0984 11.6364C29.0984 11.0227 29.0037 10.4697 28.8143 9.97727C28.6287 9.48106 28.3465 9.08902 27.9677 8.80114C27.5927 8.50947 27.1211 8.36364 26.553 8.36364C26.0075 8.36364 25.5492 8.50189 25.178 8.77841C24.8067 9.05114 24.5264 9.43371 24.337 9.92614C24.1477 10.4148 24.053 10.9848 24.053 11.6364ZM33.1959 19.2727C32.9686 19.2727 32.766 19.2538 32.588 19.2159C32.4099 19.1818 32.2868 19.1477 32.2186 19.1136L32.5595 17.9318C32.8853 18.0152 33.1732 18.0455 33.4232 18.0227C33.6732 18 33.8948 17.8883 34.088 17.6875C34.2849 17.4905 34.4648 17.1705 34.6277 16.7273L34.8777 16.0455L31.6505 7.27273H33.105L35.5141 14.2273H35.605L38.0141 7.27273H39.4686L35.7641 17.2727C35.5974 17.7235 35.391 18.0966 35.1448 18.392C34.8986 18.6913 34.6126 18.9129 34.2868 19.0568C33.9648 19.2008 33.6012 19.2727 33.1959 19.2727ZM41.3985 16V7.27273H42.694V8.59091H42.7849C42.944 8.15909 43.2319 7.80871 43.6485 7.53977C44.0652 7.27083 44.5349 7.13636 45.0576 7.13636C45.1561 7.13636 45.2792 7.13826 45.4269 7.14205C45.5747 7.14583 45.6864 7.15152 45.7622 7.15909V8.52273C45.7167 8.51136 45.6125 8.49432 45.4497 8.47159C45.2906 8.44508 45.122 8.43182 44.944 8.43182C44.5197 8.43182 44.1409 8.52083 43.8076 8.69886C43.4781 8.87311 43.2167 9.11553 43.0235 9.42614C42.8341 9.73295 42.7394 10.0833 42.7394 10.4773V16H41.3985ZM47.5116 16V7.27273H48.8526V16H47.5116ZM48.1935 5.81818C47.9321 5.81818 47.7067 5.72917 47.5173 5.55114C47.3317 5.37311 47.2389 5.15909 47.2389 4.90909C47.2389 4.65909 47.3317 4.44508 47.5173 4.26705C47.7067 4.08902 47.9321 4 48.1935 4C48.4548 4 48.6783 4.08902 48.8639 4.26705C49.0533 4.44508 49.148 4.65909 49.148 4.90909C49.148 5.15909 49.0533 5.37311 48.8639 5.55114C48.6783 5.72917 48.4548 5.81818 48.1935 5.81818ZM54.9912 19.4545C54.3435 19.4545 53.7867 19.3712 53.3208 19.2045C52.8549 19.0417 52.4666 18.8258 52.156 18.5568C51.8492 18.2917 51.6049 18.0076 51.4231 17.7045L52.4912 16.9545C52.6125 17.1136 52.7659 17.2955 52.9515 17.5C53.1371 17.7083 53.3909 17.8883 53.7128 18.0398C54.0386 18.1951 54.4647 18.2727 54.9912 18.2727C55.6958 18.2727 56.2772 18.1023 56.7356 17.7614C57.1939 17.4205 57.4231 16.8864 57.4231 16.1591V14.3864H57.3094C57.2109 14.5455 57.0708 14.7424 56.889 14.9773C56.7109 15.2083 56.4534 15.4148 56.1162 15.5966C55.7829 15.7746 55.3322 15.8636 54.764 15.8636C54.0594 15.8636 53.4269 15.697 52.8662 15.3636C52.3094 15.0303 51.8681 14.5455 51.5424 13.9091C51.2204 13.2727 51.0594 12.5 51.0594 11.5909C51.0594 10.697 51.2166 9.91856 51.531 9.25568C51.8454 8.58901 52.2829 8.07386 52.8435 7.71023C53.4041 7.3428 54.0519 7.15909 54.7867 7.15909C55.3549 7.15909 55.8056 7.25379 56.139 7.44318C56.4761 7.62879 56.7337 7.84091 56.9117 8.07955C57.0935 8.31439 57.2337 8.50758 57.3322 8.65909H57.4685V7.27273H58.764V16.25C58.764 17 58.5935 17.6098 58.2526 18.0795C57.9155 18.553 57.4609 18.8996 56.889 19.1193C56.3208 19.3428 55.6882 19.4545 54.9912 19.4545ZM54.9458 14.6591C55.4837 14.6591 55.9382 14.536 56.3094 14.2898C56.6806 14.0436 56.9628 13.6894 57.156 13.2273C57.3492 12.7652 57.4458 12.2121 57.4458 11.5682C57.4458 10.9394 57.3511 10.3845 57.1617 9.90341C56.9723 9.42235 56.692 9.04545 56.3208 8.77273C55.9496 8.5 55.4912 8.36364 54.9458 8.36364C54.3776 8.36364 53.9041 8.50758 53.5253 8.79545C53.1503 9.08333 52.8681 9.4697 52.6787 9.95455C52.4931 10.4394 52.4003 10.9773 52.4003 11.5682C52.4003 12.1742 52.495 12.7102 52.6844 13.1761C52.8776 13.6383 53.1617 14.0019 53.5367 14.267C53.9155 14.5284 54.3852 14.6591 54.9458 14.6591ZM62.7194 10.75V16H61.3785V4.36364H62.7194V8.63636H62.8331C63.0376 8.18561 63.3444 7.82765 63.7535 7.5625C64.1664 7.29356 64.7156 7.15909 65.4012 7.15909C65.9959 7.15909 66.5168 7.27841 66.9637 7.51705C67.4107 7.75189 67.7573 8.11364 68.0035 8.60227C68.2535 9.08712 68.3785 9.70455 68.3785 10.4545V16H67.0376V10.5455C67.0376 9.85227 66.8577 9.31629 66.4978 8.9375C66.1418 8.55492 65.6475 8.36364 65.0149 8.36364C64.5755 8.36364 64.1816 8.45644 63.8331 8.64205C63.4884 8.82765 63.2156 9.09848 63.0149 9.45455C62.8179 9.81061 62.7194 10.2424 62.7194 10.75ZM74.7871 7.27273V8.40909H70.2644V7.27273H74.7871ZM71.5826 5.18182H72.9235V13.5C72.9235 13.8788 72.9784 14.1629 73.0882 14.3523C73.2019 14.5379 73.3458 14.6629 73.5201 14.7273C73.6981 14.7879 73.8856 14.8182 74.0826 14.8182C74.2303 14.8182 74.3515 14.8106 74.4462 14.7955C74.5409 14.7765 74.6166 14.7614 74.6735 14.75L74.9462 15.9545C74.8553 15.9886 74.7284 16.0227 74.5655 16.0568C74.4026 16.0947 74.1962 16.1136 73.9462 16.1136C73.5674 16.1136 73.1962 16.0322 72.8326 15.8693C72.4727 15.7064 72.1735 15.4583 71.9348 15.125C71.7 14.7917 71.5826 14.3712 71.5826 13.8636V5.18182ZM81.6014 16V14.9773L85.4423 10.7727C85.8931 10.2803 86.2643 9.85227 86.556 9.48864C86.8476 9.12121 87.0635 8.77652 87.2037 8.45455C87.3476 8.12879 87.4196 7.78788 87.4196 7.43182C87.4196 7.02273 87.3211 6.66856 87.1241 6.36932C86.931 6.07008 86.6658 5.83901 86.3287 5.67614C85.9916 5.51326 85.6128 5.43182 85.1923 5.43182C84.7454 5.43182 84.3552 5.52462 84.0219 5.71023C83.6923 5.89205 83.4366 6.14773 83.2548 6.47727C83.0768 6.80682 82.9878 7.19318 82.9878 7.63636H81.6469C81.6469 6.95455 81.8041 6.35606 82.1185 5.84091C82.4329 5.32576 82.8609 4.92424 83.4026 4.63636C83.948 4.34848 84.5598 4.20455 85.2378 4.20455C85.9196 4.20455 86.5238 4.34848 87.0503 4.63636C87.5768 4.92424 87.9897 5.3125 88.2889 5.80114C88.5882 6.28977 88.7378 6.83333 88.7378 7.43182C88.7378 7.85985 88.6601 8.27841 88.5048 8.6875C88.3533 9.0928 88.0882 9.54545 87.7094 10.0455C87.3344 10.5417 86.8135 11.1477 86.1469 11.8636L83.5332 14.6591V14.75H88.9423V16H81.6014ZM95.2444 16.1591C94.3883 16.1591 93.6591 15.9261 93.0569 15.4602C92.4546 14.9905 91.9944 14.3106 91.6762 13.4205C91.358 12.5265 91.1989 11.447 91.1989 10.1818C91.1989 8.92424 91.358 7.85038 91.6762 6.96023C91.9982 6.06629 92.4603 5.38447 93.0626 4.91477C93.6686 4.44129 94.3959 4.20455 95.2444 4.20455C96.0929 4.20455 96.8182 4.44129 97.4205 4.91477C98.0266 5.38447 98.4887 6.06629 98.8069 6.96023C99.1288 7.85038 99.2898 8.92424 99.2898 10.1818C99.2898 11.447 99.1307 12.5265 98.8126 13.4205C98.4944 14.3106 98.0341 14.9905 97.4319 15.4602C96.8296 15.9261 96.1004 16.1591 95.2444 16.1591ZM95.2444 14.9091C96.0929 14.9091 96.752 14.5 97.2217 13.6818C97.6913 12.8636 97.9262 11.697 97.9262 10.1818C97.9262 9.17424 97.8182 8.31629 97.6023 7.60795C97.3902 6.89962 97.0834 6.35985 96.6819 5.98864C96.2842 5.61742 95.805 5.43182 95.2444 5.43182C94.4035 5.43182 93.7463 5.84659 93.2728 6.67614C92.7993 7.50189 92.5626 8.67045 92.5626 10.1818C92.5626 11.1894 92.6686 12.0455 92.8807 12.75C93.0929 13.4545 93.3978 13.9905 93.7955 14.358C94.197 14.7254 94.68 14.9091 95.2444 14.9091ZM101.609 16V14.9773L105.45 10.7727C105.901 10.2803 106.272 9.85227 106.563 9.48864C106.855 9.12121 107.071 8.77652 107.211 8.45455C107.355 8.12879 107.427 7.78788 107.427 7.43182C107.427 7.02273 107.329 6.66856 107.132 6.36932C106.938 6.07008 106.673 5.83901 106.336 5.67614C105.999 5.51326 105.62 5.43182 105.2 5.43182C104.753 5.43182 104.363 5.52462 104.029 5.71023C103.7 5.89205 103.444 6.14773 103.262 6.47727C103.084 6.80682 102.995 7.19318 102.995 7.63636H101.654C101.654 6.95455 101.812 6.35606 102.126 5.84091C102.44 5.32576 102.868 4.92424 103.41 4.63636C103.956 4.34848 104.567 4.20455 105.245 4.20455C105.927 4.20455 106.531 4.34848 107.058 4.63636C107.584 4.92424 107.997 5.3125 108.296 5.80114C108.596 6.28977 108.745 6.83333 108.745 7.43182C108.745 7.85985 108.668 8.27841 108.512 8.6875C108.361 9.0928 108.096 9.54545 107.717 10.0455C107.342 10.5417 106.821 11.1477 106.154 11.8636L103.541 14.6591V14.75H108.95V16H101.609ZM115.252 16.1591C114.396 16.1591 113.667 15.9261 113.064 15.4602C112.462 14.9905 112.002 14.3106 111.684 13.4205C111.366 12.5265 111.206 11.447 111.206 10.1818C111.206 8.92424 111.366 7.85038 111.684 6.96023C112.006 6.06629 112.468 5.38447 113.07 4.91477C113.676 4.44129 114.403 4.20455 115.252 4.20455C116.1 4.20455 116.826 4.44129 117.428 4.91477C118.034 5.38447 118.496 6.06629 118.814 6.96023C119.136 7.85038 119.297 8.92424 119.297 10.1818C119.297 11.447 119.138 12.5265 118.82 13.4205C118.502 14.3106 118.042 14.9905 117.439 15.4602C116.837 15.9261 116.108 16.1591 115.252 16.1591ZM115.252 14.9091C116.1 14.9091 116.759 14.5 117.229 13.6818C117.699 12.8636 117.934 11.697 117.934 10.1818C117.934 9.17424 117.826 8.31629 117.61 7.60795C117.398 6.89962 117.091 6.35985 116.689 5.98864C116.292 5.61742 115.812 5.43182 115.252 5.43182C114.411 5.43182 113.754 5.84659 113.28 6.67614C112.807 7.50189 112.57 8.67045 112.57 10.1818C112.57 11.1894 112.676 12.0455 112.888 12.75C113.1 13.4545 113.405 13.9905 113.803 14.358C114.205 14.7254 114.687 14.9091 115.252 14.9091ZM129.072 10.1818C129.072 9.56061 129.223 8.99432 129.526 8.48295C129.829 7.97159 130.237 7.56439 130.748 7.26136C131.259 6.95833 131.826 6.80682 132.447 6.80682C132.985 6.80682 133.481 6.92235 133.936 7.15341C134.394 7.38447 134.773 7.70076 135.072 8.10227C135.371 8.5 135.557 8.95076 135.629 9.45455H134.254C134.178 9.06439 133.968 8.74621 133.623 8.5C133.278 8.25 132.886 8.125 132.447 8.125C132.068 8.125 131.723 8.2178 131.413 8.40341C131.102 8.58902 130.854 8.83712 130.668 9.14773C130.483 9.45833 130.39 9.80303 130.39 10.1818C130.39 10.5606 130.483 10.9053 130.668 11.2159C130.854 11.5265 131.102 11.7746 131.413 11.9602C131.723 12.1458 132.068 12.2386 132.447 12.2386C132.886 12.2386 133.257 12.1155 133.561 11.8693C133.867 11.6193 134.061 11.2992 134.14 10.9091H135.515C135.443 11.4129 135.267 11.8655 134.987 12.267C134.706 12.6648 134.346 12.9792 133.907 13.2102C133.471 13.4413 132.985 13.5568 132.447 13.5568C131.826 13.5568 131.259 13.4053 130.748 13.1023C130.237 12.7992 129.829 12.392 129.526 11.8807C129.223 11.3693 129.072 10.803 129.072 10.1818ZM132.39 16.1818C131.564 16.1818 130.788 16.0265 130.061 15.7159C129.337 15.4053 128.699 14.9754 128.146 14.4261C127.596 13.8731 127.165 13.2348 126.85 12.5114C126.54 11.7879 126.386 11.0114 126.39 10.1818C126.394 9.35227 126.551 8.57576 126.862 7.85227C127.176 7.12879 127.608 6.49242 128.157 5.94318C128.706 5.39015 129.343 4.95833 130.066 4.64773C130.79 4.33712 131.564 4.18182 132.39 4.18182C133.22 4.18182 133.996 4.33712 134.72 4.64773C135.447 4.95833 136.083 5.39015 136.629 5.94318C137.178 6.49242 137.608 7.12879 137.918 7.85227C138.229 8.57576 138.386 9.35227 138.39 10.1818C138.394 11.0114 138.24 11.7879 137.93 12.5114C137.619 13.2348 137.189 13.8731 136.64 14.4261C136.091 14.9754 135.453 15.4053 134.725 15.7159C133.998 16.0265 133.22 16.1818 132.39 16.1818ZM132.39 14.8636C133.038 14.8636 133.646 14.7424 134.214 14.5C134.782 14.2576 135.28 13.9223 135.708 13.4943C136.136 13.0663 136.471 12.5701 136.714 12.0057C136.956 11.4375 137.076 10.8314 137.072 10.1875C137.068 9.53977 136.945 8.93182 136.703 8.36364C136.46 7.79545 136.125 7.29735 135.697 6.86932C135.269 6.44129 134.773 6.10606 134.208 5.86364C133.644 5.62121 133.038 5.5 132.39 5.5C131.746 5.5 131.142 5.62121 130.578 5.86364C130.013 6.10606 129.517 6.44318 129.089 6.875C128.661 7.30303 128.324 7.80114 128.078 8.36932C127.835 8.93371 127.712 9.53977 127.708 10.1875C127.704 10.8277 127.824 11.4318 128.066 12C128.309 12.5644 128.644 13.0606 129.072 13.4886C129.504 13.9167 130.002 14.2538 130.566 14.5C131.134 14.7424 131.742 14.8636 132.39 14.8636ZM317.11 0.613636V19.75H315.974V0.613636H317.11ZM325.392 16V4.36364H329.323C330.236 4.36364 330.983 4.52841 331.562 4.85795C332.145 5.18371 332.577 5.625 332.858 6.18182C333.138 6.73864 333.278 7.35985 333.278 8.04545C333.278 8.73106 333.138 9.35417 332.858 9.91477C332.581 10.4754 332.153 10.9223 331.573 11.2557C330.994 11.5852 330.251 11.75 329.346 11.75H326.528V10.5H329.301C329.926 10.5 330.428 10.392 330.806 10.1761C331.185 9.96023 331.46 9.66856 331.63 9.30114C331.804 8.92992 331.892 8.51136 331.892 8.04545C331.892 7.57955 331.804 7.16288 331.63 6.79545C331.46 6.42803 331.183 6.14015 330.801 5.93182C330.418 5.7197 329.911 5.61364 329.278 5.61364H326.801V16H325.392ZM335.526 16V7.27273H336.821V8.59091H336.912C337.071 8.15909 337.359 7.80871 337.776 7.53977C338.193 7.27083 338.662 7.13636 339.185 7.13636C339.284 7.13636 339.407 7.13826 339.554 7.14205C339.702 7.14583 339.814 7.15152 339.89 7.15909V8.52273C339.844 8.51136 339.74 8.49432 339.577 8.47159C339.418 8.44508 339.249 8.43182 339.071 8.43182C338.647 8.43182 338.268 8.52083 337.935 8.69886C337.606 8.87311 337.344 9.11553 337.151 9.42614C336.962 9.73295 336.867 10.0833 336.867 10.4773V16H335.526ZM341.639 16V7.27273H342.98V16H341.639ZM342.321 5.81818C342.06 5.81818 341.834 5.72917 341.645 5.55114C341.459 5.37311 341.366 5.15909 341.366 4.90909C341.366 4.65909 341.459 4.44508 341.645 4.26705C341.834 4.08902 342.06 4 342.321 4C342.582 4 342.806 4.08902 342.991 4.26705C343.181 4.44508 343.276 4.65909 343.276 4.90909C343.276 5.15909 343.181 5.37311 342.991 5.55114C342.806 5.72917 342.582 5.81818 342.321 5.81818ZM352.732 7.27273L349.505 16H348.141L344.914 7.27273H346.369L348.778 14.2273H348.869L351.278 7.27273H352.732ZM356.965 16.2045C356.412 16.2045 355.91 16.1004 355.459 15.892C355.008 15.6799 354.65 15.375 354.385 14.9773C354.12 14.5758 353.988 14.0909 353.988 13.5227C353.988 13.0227 354.086 12.6174 354.283 12.3068C354.48 11.9924 354.743 11.7462 355.073 11.5682C355.402 11.3902 355.766 11.2576 356.164 11.1705C356.565 11.0795 356.969 11.0076 357.374 10.9545C357.904 10.8864 358.334 10.8352 358.664 10.8011C358.997 10.7633 359.239 10.7008 359.391 10.6136C359.546 10.5265 359.624 10.375 359.624 10.1591V10.1136C359.624 9.55303 359.471 9.11742 359.164 8.80682C358.861 8.49621 358.4 8.34091 357.783 8.34091C357.143 8.34091 356.641 8.48106 356.277 8.76136C355.914 9.04167 355.658 9.34091 355.51 9.65909L354.238 9.20455C354.465 8.67424 354.768 8.26136 355.147 7.96591C355.529 7.66667 355.946 7.45833 356.397 7.34091C356.851 7.2197 357.298 7.15909 357.738 7.15909C358.018 7.15909 358.34 7.19318 358.703 7.26136C359.071 7.32576 359.425 7.46023 359.766 7.66477C360.111 7.86932 360.397 8.17803 360.624 8.59091C360.851 9.00379 360.965 9.55682 360.965 10.25V16H359.624V14.8182H359.556C359.465 15.0076 359.313 15.2102 359.101 15.4261C358.889 15.642 358.607 15.8258 358.255 15.9773C357.902 16.1288 357.472 16.2045 356.965 16.2045ZM357.169 15C357.7 15 358.147 14.8958 358.51 14.6875C358.878 14.4792 359.154 14.2102 359.34 13.8807C359.529 13.5511 359.624 13.2045 359.624 12.8409V11.6136C359.567 11.6818 359.442 11.7443 359.249 11.8011C359.06 11.8542 358.84 11.9015 358.59 11.9432C358.344 11.9811 358.103 12.0152 357.868 12.0455C357.637 12.072 357.45 12.0947 357.306 12.1136C356.957 12.1591 356.631 12.233 356.328 12.3352C356.029 12.4337 355.787 12.5833 355.601 12.7841C355.419 12.9811 355.328 13.25 355.328 13.5909C355.328 14.0568 355.501 14.4091 355.846 14.6477C356.194 14.8826 356.635 15 357.169 15ZM367.118 16.1818C366.3 16.1818 365.595 15.9886 365.004 15.6023C364.413 15.2159 363.959 14.6837 363.64 14.0057C363.322 13.3277 363.163 12.553 363.163 11.6818C363.163 10.7955 363.326 10.0133 363.652 9.33523C363.981 8.65341 364.44 8.12121 365.027 7.73864C365.618 7.35227 366.307 7.15909 367.095 7.15909C367.709 7.15909 368.262 7.27273 368.754 7.5C369.247 7.72727 369.65 8.04545 369.964 8.45455C370.279 8.86364 370.474 9.34091 370.55 9.88636H369.209C369.106 9.48864 368.879 9.13636 368.527 8.82955C368.178 8.51894 367.709 8.36364 367.118 8.36364C366.595 8.36364 366.137 8.5 365.743 8.77273C365.353 9.04167 365.048 9.42235 364.828 9.91477C364.612 10.4034 364.504 10.9773 364.504 11.6364C364.504 12.3106 364.61 12.8977 364.822 13.3977C365.038 13.8977 365.341 14.286 365.731 14.5625C366.125 14.839 366.587 14.9773 367.118 14.9773C367.466 14.9773 367.783 14.9167 368.067 14.7955C368.351 14.6742 368.591 14.5 368.788 14.2727C368.985 14.0455 369.125 13.7727 369.209 13.4545H370.55C370.474 13.9697 370.286 14.4337 369.987 14.8466C369.692 15.2557 369.3 15.5814 368.811 15.8239C368.326 16.0625 367.762 16.1818 367.118 16.1818ZM373.533 19.2727C373.306 19.2727 373.103 19.2538 372.925 19.2159C372.747 19.1818 372.624 19.1477 372.556 19.1136L372.897 17.9318C373.223 18.0152 373.511 18.0455 373.761 18.0227C374.011 18 374.232 17.8883 374.425 17.6875C374.622 17.4905 374.802 17.1705 374.965 16.7273L375.215 16.0455L371.988 7.27273H373.443L375.852 14.2273H375.943L378.352 7.27273H379.806L376.102 17.2727C375.935 17.7235 375.728 18.0966 375.482 18.392C375.236 18.6913 374.95 18.9129 374.624 19.0568C374.302 19.2008 373.939 19.2727 373.533 19.2727ZM386.578 16V4.36364H390.51C391.423 4.36364 392.169 4.52841 392.748 4.85795C393.332 5.18371 393.763 5.625 394.044 6.18182C394.324 6.73864 394.464 7.35985 394.464 8.04545C394.464 8.73106 394.324 9.35417 394.044 9.91477C393.767 10.4754 393.339 10.9223 392.76 11.2557C392.18 11.5852 391.438 11.75 390.532 11.75H387.714V10.5H390.487C391.112 10.5 391.614 10.392 391.993 10.1761C392.371 9.96023 392.646 9.66856 392.816 9.30114C392.991 8.92992 393.078 8.51136 393.078 8.04545C393.078 7.57955 392.991 7.16288 392.816 6.79545C392.646 6.42803 392.37 6.14015 391.987 5.93182C391.604 5.7197 391.097 5.61364 390.464 5.61364H387.987V16H386.578ZM400.164 16.1818C399.376 16.1818 398.685 15.9943 398.09 15.6193C397.499 15.2443 397.037 14.7197 396.704 14.0455C396.374 13.3712 396.209 12.5833 396.209 11.6818C396.209 10.7727 396.374 9.97917 396.704 9.30114C397.037 8.62311 397.499 8.09659 398.09 7.72159C398.685 7.34659 399.376 7.15909 400.164 7.15909C400.952 7.15909 401.641 7.34659 402.232 7.72159C402.827 8.09659 403.289 8.62311 403.619 9.30114C403.952 9.97917 404.119 10.7727 404.119 11.6818C404.119 12.5833 403.952 13.3712 403.619 14.0455C403.289 14.7197 402.827 15.2443 402.232 15.6193C401.641 15.9943 400.952 16.1818 400.164 16.1818ZM400.164 14.9773C400.762 14.9773 401.255 14.8239 401.641 14.517C402.028 14.2102 402.314 13.8068 402.499 13.3068C402.685 12.8068 402.778 12.2652 402.778 11.6818C402.778 11.0985 402.685 10.5549 402.499 10.0511C402.314 9.54735 402.028 9.14015 401.641 8.82955C401.255 8.51894 400.762 8.36364 400.164 8.36364C399.565 8.36364 399.073 8.51894 398.687 8.82955C398.3 9.14015 398.014 9.54735 397.829 10.0511C397.643 10.5549 397.55 11.0985 397.55 11.6818C397.55 12.2652 397.643 12.8068 397.829 13.3068C398.014 13.8068 398.3 14.2102 398.687 14.517C399.073 14.8239 399.565 14.9773 400.164 14.9773ZM407.666 4.36364V16H406.325V4.36364H407.666ZM410.282 16V7.27273H411.623V16H410.282ZM410.964 5.81818C410.703 5.81818 410.477 5.72917 410.288 5.55114C410.102 5.37311 410.01 5.15909 410.01 4.90909C410.01 4.65909 410.102 4.44508 410.288 4.26705C410.477 4.08902 410.703 4 410.964 4C411.225 4 411.449 4.08902 411.635 4.26705C411.824 4.44508 411.919 4.65909 411.919 4.90909C411.919 5.15909 411.824 5.37311 411.635 5.55114C411.449 5.72917 411.225 5.81818 410.964 5.81818ZM417.785 16.1818C416.966 16.1818 416.262 15.9886 415.671 15.6023C415.08 15.2159 414.626 14.6837 414.307 14.0057C413.989 13.3277 413.83 12.553 413.83 11.6818C413.83 10.7955 413.993 10.0133 414.319 9.33523C414.648 8.65341 415.107 8.12121 415.694 7.73864C416.285 7.35227 416.974 7.15909 417.762 7.15909C418.376 7.15909 418.929 7.27273 419.421 7.5C419.913 7.72727 420.317 8.04545 420.631 8.45455C420.946 8.86364 421.141 9.34091 421.216 9.88636H419.876C419.773 9.48864 419.546 9.13636 419.194 8.82955C418.845 8.51894 418.376 8.36364 417.785 8.36364C417.262 8.36364 416.804 8.5 416.41 8.77273C416.019 9.04167 415.715 9.42235 415.495 9.91477C415.279 10.4034 415.171 10.9773 415.171 11.6364C415.171 12.3106 415.277 12.8977 415.489 13.3977C415.705 13.8977 416.008 14.286 416.398 14.5625C416.792 14.839 417.254 14.9773 417.785 14.9773C418.133 14.9773 418.449 14.9167 418.733 14.7955C419.018 14.6742 419.258 14.5 419.455 14.2727C419.652 14.0455 419.792 13.7727 419.876 13.4545H421.216C421.141 13.9697 420.953 14.4337 420.654 14.8466C420.358 15.2557 419.966 15.5814 419.478 15.8239C418.993 16.0625 418.429 16.1818 417.785 16.1818ZM424.2 19.2727C423.973 19.2727 423.77 19.2538 423.592 19.2159C423.414 19.1818 423.291 19.1477 423.223 19.1136L423.564 17.9318C423.89 18.0152 424.178 18.0455 424.428 18.0227C424.678 18 424.899 17.8883 425.092 17.6875C425.289 17.4905 425.469 17.1705 425.632 16.7273L425.882 16.0455L422.655 7.27273H424.109L426.518 14.2273H426.609L429.018 7.27273H430.473L426.768 17.2727C426.602 17.7235 426.395 18.0966 426.149 18.392C425.903 18.6913 425.617 18.9129 425.291 19.0568C424.969 19.2008 424.606 19.2727 424.2 19.2727Z" fill="#302E2F"/>
<path d="M140.441 6.39205V4.36364H149.997V6.39205H146.435V16H144.003V6.39205H140.441ZM154.106 10.9545V16H151.686V4.36364H154.038V8.8125H154.14C154.337 8.29735 154.656 7.89394 155.095 7.60227C155.534 7.30682 156.086 7.15909 156.748 7.15909C157.354 7.15909 157.883 7.29167 158.334 7.55682C158.788 7.81818 159.14 8.19508 159.39 8.6875C159.644 9.17614 159.769 9.76136 159.765 10.4432V16H157.345V10.875C157.349 10.3371 157.212 9.91856 156.936 9.61932C156.663 9.32008 156.281 9.17045 155.788 9.17045C155.459 9.17045 155.167 9.24053 154.913 9.38068C154.663 9.52083 154.466 9.72538 154.322 9.99432C154.182 10.2595 154.11 10.5795 154.106 10.9545ZM165.808 16.1705C164.91 16.1705 164.137 15.9886 163.489 15.625C162.845 15.2576 162.349 14.7386 162.001 14.0682C161.652 13.3939 161.478 12.5966 161.478 11.6761C161.478 10.7784 161.652 9.99053 162.001 9.3125C162.349 8.63447 162.84 8.10606 163.472 7.72727C164.109 7.34848 164.855 7.15909 165.711 7.15909C166.287 7.15909 166.823 7.25189 167.319 7.4375C167.819 7.61932 168.255 7.89394 168.626 8.26136C169.001 8.62879 169.292 9.09091 169.501 9.64773C169.709 10.2008 169.813 10.8485 169.813 11.5909V12.2557H162.444V10.7557H167.535C167.535 10.4072 167.459 10.0985 167.308 9.82955C167.156 9.56061 166.946 9.35038 166.677 9.19886C166.412 9.04356 166.103 8.96591 165.751 8.96591C165.383 8.96591 165.058 9.05114 164.773 9.22159C164.493 9.38826 164.273 9.61364 164.114 9.89773C163.955 10.178 163.874 10.4905 163.87 10.8352V12.2614C163.87 12.6932 163.95 13.0663 164.109 13.3807C164.272 13.6951 164.501 13.9375 164.796 14.108C165.092 14.2784 165.442 14.3636 165.847 14.3636C166.116 14.3636 166.362 14.3258 166.586 14.25C166.809 14.1742 167.001 14.0606 167.16 13.9091C167.319 13.7576 167.44 13.572 167.523 13.3523L169.762 13.5C169.648 14.0379 169.416 14.5076 169.063 14.9091C168.715 15.3068 168.264 15.6174 167.711 15.8409C167.162 16.0606 166.527 16.1705 165.808 16.1705ZM175.461 16V4.36364H177.922V9.16477H182.916V4.36364H185.37V16H182.916V11.1932H177.922V16H175.461ZM190.002 16.1648C189.445 16.1648 188.949 16.0682 188.513 15.875C188.078 15.678 187.733 15.3883 187.479 15.0057C187.229 14.6193 187.104 14.1383 187.104 13.5625C187.104 13.0777 187.193 12.6705 187.371 12.3409C187.549 12.0114 187.792 11.7462 188.099 11.5455C188.405 11.3447 188.754 11.1932 189.144 11.0909C189.538 10.9886 189.951 10.9167 190.383 10.875C190.89 10.822 191.299 10.7727 191.61 10.7273C191.921 10.678 192.146 10.6061 192.286 10.5114C192.426 10.4167 192.496 10.2765 192.496 10.0909V10.0568C192.496 9.69697 192.383 9.41856 192.155 9.22159C191.932 9.02462 191.614 8.92614 191.201 8.92614C190.765 8.92614 190.419 9.02273 190.161 9.21591C189.904 9.4053 189.733 9.64394 189.65 9.93182L187.411 9.75C187.525 9.2197 187.748 8.76136 188.082 8.375C188.415 7.98485 188.845 7.68561 189.371 7.47727C189.902 7.26515 190.515 7.15909 191.212 7.15909C191.697 7.15909 192.161 7.21591 192.604 7.32955C193.051 7.44318 193.447 7.61932 193.792 7.85795C194.14 8.09659 194.415 8.40341 194.616 8.77841C194.816 9.14962 194.917 9.5947 194.917 10.1136V16H192.621V14.7898H192.553C192.413 15.0625 192.226 15.303 191.991 15.5114C191.756 15.7159 191.474 15.8769 191.144 15.9943C190.815 16.108 190.434 16.1648 190.002 16.1648ZM190.695 14.4943C191.051 14.4943 191.366 14.4242 191.638 14.2841C191.911 14.1402 192.125 13.947 192.28 13.7045C192.436 13.4621 192.513 13.1875 192.513 12.8807V11.9545C192.438 12.0038 192.333 12.0492 192.201 12.0909C192.072 12.1288 191.926 12.1648 191.763 12.1989C191.601 12.2292 191.438 12.2576 191.275 12.2841C191.112 12.3068 190.964 12.3277 190.832 12.3466C190.548 12.3883 190.299 12.4545 190.087 12.5455C189.875 12.6364 189.71 12.7595 189.593 12.9148C189.476 13.0663 189.417 13.2557 189.417 13.483C189.417 13.8125 189.536 14.0644 189.775 14.2386C190.017 14.4091 190.324 14.4943 190.695 14.4943ZM199.375 10.9545V16H196.955V7.27273H199.261V8.8125H199.364C199.557 8.30492 199.881 7.90341 200.335 7.60795C200.79 7.30871 201.341 7.15909 201.989 7.15909C202.595 7.15909 203.123 7.29167 203.574 7.55682C204.025 7.82197 204.375 8.20076 204.625 8.69318C204.875 9.18182 205 9.76515 205 10.4432V16H202.58V10.875C202.583 10.3409 202.447 9.92424 202.171 9.625C201.894 9.32197 201.513 9.17045 201.029 9.17045C200.703 9.17045 200.415 9.24053 200.165 9.38068C199.919 9.52083 199.725 9.72538 199.585 9.99432C199.449 10.2595 199.379 10.5795 199.375 10.9545ZM210.284 16.142C209.621 16.142 209.02 15.9716 208.483 15.6307C207.948 15.286 207.524 14.7803 207.21 14.1136C206.899 13.4432 206.744 12.6212 206.744 11.6477C206.744 10.6477 206.905 9.81629 207.227 9.15341C207.549 8.48674 207.977 7.98864 208.511 7.65909C209.049 7.32576 209.638 7.15909 210.278 7.15909C210.767 7.15909 211.174 7.24242 211.5 7.40909C211.829 7.57197 212.094 7.77652 212.295 8.02273C212.5 8.26515 212.655 8.50379 212.761 8.73864H212.835V4.36364H215.25V16H212.863V14.6023H212.761C212.647 14.8447 212.486 15.0852 212.278 15.3239C212.073 15.5587 211.806 15.7538 211.477 15.9091C211.151 16.0644 210.753 16.142 210.284 16.142ZM211.051 14.2159C211.441 14.2159 211.77 14.1098 212.039 13.8977C212.312 13.6818 212.52 13.3807 212.664 12.9943C212.812 12.608 212.886 12.1553 212.886 11.6364C212.886 11.1174 212.814 10.6667 212.67 10.2841C212.526 9.90151 212.318 9.60606 212.045 9.39773C211.772 9.18939 211.441 9.08523 211.051 9.08523C210.653 9.08523 210.318 9.19318 210.045 9.40909C209.772 9.625 209.566 9.92424 209.426 10.3068C209.286 10.6894 209.216 11.1326 209.216 11.6364C209.216 12.1439 209.286 12.5928 209.426 12.983C209.57 13.3693 209.776 13.6723 210.045 13.892C210.318 14.108 210.653 14.2159 211.051 14.2159ZM217.445 16V4.36364H222.104C222.96 4.36364 223.674 4.49053 224.246 4.74432C224.818 4.99811 225.248 5.35038 225.536 5.80114C225.824 6.24811 225.968 6.76326 225.968 7.34659C225.968 7.80114 225.877 8.20076 225.695 8.54545C225.513 8.88636 225.263 9.16667 224.945 9.38636C224.631 9.60227 224.271 9.75568 223.866 9.84659V9.96023C224.309 9.97917 224.724 10.1042 225.11 10.3352C225.5 10.5663 225.816 10.8902 226.059 11.3068C226.301 11.7197 226.422 12.2121 226.422 12.7841C226.422 13.4015 226.269 13.9527 225.962 14.4375C225.659 14.9186 225.21 15.2992 224.616 15.5795C224.021 15.8598 223.288 16 222.417 16H217.445ZM219.905 13.9886H221.911C222.597 13.9886 223.097 13.858 223.411 13.5966C223.725 13.3314 223.883 12.9792 223.883 12.5398C223.883 12.2178 223.805 11.9337 223.65 11.6875C223.494 11.4413 223.273 11.2481 222.985 11.108C222.701 10.9678 222.362 10.8977 221.968 10.8977H219.905V13.9886ZM219.905 9.23295H221.729C222.066 9.23295 222.366 9.17424 222.627 9.05682C222.892 8.93561 223.1 8.76515 223.252 8.54545C223.407 8.32576 223.485 8.0625 223.485 7.75568C223.485 7.33523 223.335 6.99621 223.036 6.73864C222.741 6.48106 222.32 6.35227 221.775 6.35227H219.905V9.23295ZM228.138 16V7.27273H230.484V8.79545H230.575C230.734 8.25379 231.001 7.8447 231.376 7.56818C231.751 7.28788 232.183 7.14773 232.672 7.14773C232.793 7.14773 232.924 7.1553 233.064 7.17045C233.204 7.18561 233.327 7.20644 233.433 7.23295V9.38068C233.32 9.34659 233.162 9.31629 232.962 9.28977C232.761 9.26326 232.577 9.25 232.411 9.25C232.054 9.25 231.736 9.32765 231.456 9.48295C231.179 9.63447 230.96 9.84659 230.797 10.1193C230.638 10.392 230.558 10.7064 230.558 11.0625V16H228.138ZM237.083 16.1648C236.526 16.1648 236.03 16.0682 235.595 15.875C235.159 15.678 234.814 15.3883 234.561 15.0057C234.311 14.6193 234.186 14.1383 234.186 13.5625C234.186 13.0777 234.275 12.6705 234.453 12.3409C234.631 12.0114 234.873 11.7462 235.18 11.5455C235.487 11.3447 235.835 11.1932 236.225 11.0909C236.619 10.9886 237.032 10.9167 237.464 10.875C237.972 10.822 238.381 10.7727 238.691 10.7273C239.002 10.678 239.227 10.6061 239.367 10.5114C239.508 10.4167 239.578 10.2765 239.578 10.0909V10.0568C239.578 9.69697 239.464 9.41856 239.237 9.22159C239.013 9.02462 238.695 8.92614 238.282 8.92614C237.847 8.92614 237.5 9.02273 237.242 9.21591C236.985 9.4053 236.814 9.64394 236.731 9.93182L234.492 9.75C234.606 9.2197 234.83 8.76136 235.163 8.375C235.496 7.98485 235.926 7.68561 236.453 7.47727C236.983 7.26515 237.597 7.15909 238.294 7.15909C238.778 7.15909 239.242 7.21591 239.686 7.32955C240.133 7.44318 240.528 7.61932 240.873 7.85795C241.222 8.09659 241.496 8.40341 241.697 8.77841C241.898 9.14962 241.998 9.5947 241.998 10.1136V16H239.703V14.7898H239.634C239.494 15.0625 239.307 15.303 239.072 15.5114C238.837 15.7159 238.555 15.8769 238.225 15.9943C237.896 16.108 237.515 16.1648 237.083 16.1648ZM237.776 14.4943C238.133 14.4943 238.447 14.4242 238.72 14.2841C238.992 14.1402 239.206 13.947 239.362 13.7045C239.517 13.4621 239.595 13.1875 239.595 12.8807V11.9545C239.519 12.0038 239.415 12.0492 239.282 12.0909C239.153 12.1288 239.008 12.1648 238.845 12.1989C238.682 12.2292 238.519 12.2576 238.356 12.2841C238.193 12.3068 238.045 12.3277 237.913 12.3466C237.629 12.3883 237.381 12.4545 237.169 12.5455C236.956 12.6364 236.792 12.7595 236.674 12.9148C236.557 13.0663 236.498 13.2557 236.498 13.483C236.498 13.8125 236.617 14.0644 236.856 14.2386C237.098 14.4091 237.405 14.4943 237.776 14.4943ZM246.229 13.4886L246.235 10.5852H246.587L249.383 7.27273H252.161L248.405 11.6591H247.831L246.229 13.4886ZM244.036 16V4.36364H246.456V16H244.036ZM249.49 16L246.922 12.1989L248.536 10.4886L252.326 16H249.49ZM257.126 16.1705C256.229 16.1705 255.456 15.9886 254.808 15.625C254.164 15.2576 253.668 14.7386 253.319 14.0682C252.971 13.3939 252.797 12.5966 252.797 11.6761C252.797 10.7784 252.971 9.99053 253.319 9.3125C253.668 8.63447 254.158 8.10606 254.791 7.72727C255.427 7.34848 256.174 7.15909 257.03 7.15909C257.605 7.15909 258.141 7.25189 258.638 7.4375C259.138 7.61932 259.573 7.89394 259.944 8.26136C260.319 8.62879 260.611 9.09091 260.819 9.64773C261.028 10.2008 261.132 10.8485 261.132 11.5909V12.2557H253.763V10.7557H258.854C258.854 10.4072 258.778 10.0985 258.626 9.82955C258.475 9.56061 258.265 9.35038 257.996 9.19886C257.73 9.04356 257.422 8.96591 257.069 8.96591C256.702 8.96591 256.376 9.05114 256.092 9.22159C255.812 9.38826 255.592 9.61364 255.433 9.89773C255.274 10.178 255.193 10.4905 255.189 10.8352V12.2614C255.189 12.6932 255.268 13.0663 255.427 13.3807C255.59 13.6951 255.819 13.9375 256.115 14.108C256.41 14.2784 256.761 14.3636 257.166 14.3636C257.435 14.3636 257.681 14.3258 257.905 14.25C258.128 14.1742 258.319 14.0606 258.479 13.9091C258.638 13.7576 258.759 13.572 258.842 13.3523L261.081 13.5C260.967 14.0379 260.734 14.5076 260.382 14.9091C260.033 15.3068 259.583 15.6174 259.03 15.8409C258.48 16.0606 257.846 16.1705 257.126 16.1705ZM266.337 6.39205V4.36364H275.894V6.39205H272.331V16H269.899V6.39205H266.337ZM280.294 16.1705C279.396 16.1705 278.623 15.9886 277.976 15.625C277.332 15.2576 276.835 14.7386 276.487 14.0682C276.138 13.3939 275.964 12.5966 275.964 11.6761C275.964 10.7784 276.138 9.99053 276.487 9.3125C276.835 8.63447 277.326 8.10606 277.959 7.72727C278.595 7.34848 279.341 7.15909 280.197 7.15909C280.773 7.15909 281.309 7.25189 281.805 7.4375C282.305 7.61932 282.741 7.89394 283.112 8.26136C283.487 8.62879 283.779 9.09091 283.987 9.64773C284.195 10.2008 284.299 10.8485 284.299 11.5909V12.2557H276.93V10.7557H282.021C282.021 10.4072 281.945 10.0985 281.794 9.82955C281.642 9.56061 281.432 9.35038 281.163 9.19886C280.898 9.04356 280.589 8.96591 280.237 8.96591C279.87 8.96591 279.544 9.05114 279.26 9.22159C278.979 9.38826 278.76 9.61364 278.601 9.89773C278.442 10.178 278.36 10.4905 278.356 10.8352V12.2614C278.356 12.6932 278.436 13.0663 278.595 13.3807C278.758 13.6951 278.987 13.9375 279.282 14.108C279.578 14.2784 279.928 14.3636 280.334 14.3636C280.603 14.3636 280.849 14.3258 281.072 14.25C281.296 14.1742 281.487 14.0606 281.646 13.9091C281.805 13.7576 281.926 13.572 282.01 13.3523L284.248 13.5C284.135 14.0379 283.902 14.5076 283.549 14.9091C283.201 15.3068 282.75 15.6174 282.197 15.8409C281.648 16.0606 281.013 16.1705 280.294 16.1705ZM288.528 16.1648C287.971 16.1648 287.475 16.0682 287.039 15.875C286.603 15.678 286.259 15.3883 286.005 15.0057C285.755 14.6193 285.63 14.1383 285.63 13.5625C285.63 13.0777 285.719 12.6705 285.897 12.3409C286.075 12.0114 286.317 11.7462 286.624 11.5455C286.931 11.3447 287.28 11.1932 287.67 11.0909C288.064 10.9886 288.477 10.9167 288.908 10.875C289.416 10.822 289.825 10.7727 290.136 10.7273C290.446 10.678 290.672 10.6061 290.812 10.5114C290.952 10.4167 291.022 10.2765 291.022 10.0909V10.0568C291.022 9.69697 290.908 9.41856 290.681 9.22159C290.458 9.02462 290.139 8.92614 289.727 8.92614C289.291 8.92614 288.944 9.02273 288.687 9.21591C288.429 9.4053 288.259 9.64394 288.175 9.93182L285.937 9.75C286.05 9.2197 286.274 8.76136 286.607 8.375C286.941 7.98485 287.37 7.68561 287.897 7.47727C288.427 7.26515 289.041 7.15909 289.738 7.15909C290.223 7.15909 290.687 7.21591 291.13 7.32955C291.577 7.44318 291.973 7.61932 292.317 7.85795C292.666 8.09659 292.941 8.40341 293.141 8.77841C293.342 9.14962 293.442 9.5947 293.442 10.1136V16H291.147V14.7898H291.079C290.939 15.0625 290.751 15.303 290.516 15.5114C290.281 15.7159 289.999 15.8769 289.67 15.9943C289.34 16.108 288.959 16.1648 288.528 16.1648ZM289.221 14.4943C289.577 14.4943 289.891 14.4242 290.164 14.2841C290.437 14.1402 290.651 13.947 290.806 13.7045C290.961 13.4621 291.039 13.1875 291.039 12.8807V11.9545C290.963 12.0038 290.859 12.0492 290.727 12.0909C290.598 12.1288 290.452 12.1648 290.289 12.1989C290.126 12.2292 289.963 12.2576 289.8 12.2841C289.638 12.3068 289.49 12.3277 289.357 12.3466C289.073 12.3883 288.825 12.4545 288.613 12.5455C288.401 12.6364 288.236 12.7595 288.119 12.9148C288.001 13.0663 287.942 13.2557 287.942 13.483C287.942 13.8125 288.062 14.0644 288.3 14.2386C288.543 14.4091 288.85 14.4943 289.221 14.4943ZM295.48 16V7.27273H297.787V8.8125H297.889C298.071 8.30114 298.374 7.89773 298.798 7.60227C299.223 7.30682 299.73 7.15909 300.321 7.15909C300.92 7.15909 301.429 7.30871 301.85 7.60795C302.27 7.90341 302.55 8.30492 302.691 8.8125H302.781C302.959 8.3125 303.281 7.91288 303.747 7.61364C304.217 7.31061 304.772 7.15909 305.412 7.15909C306.226 7.15909 306.887 7.41856 307.395 7.9375C307.906 8.45265 308.162 9.18371 308.162 10.1307V16H305.747V10.608C305.747 10.1231 305.619 9.75947 305.361 9.51705C305.103 9.27462 304.781 9.15341 304.395 9.15341C303.956 9.15341 303.613 9.29356 303.367 9.57386C303.12 9.85038 302.997 10.2159 302.997 10.6705V16H300.651V10.5568C300.651 10.1288 300.528 9.78788 300.281 9.53409C300.039 9.2803 299.719 9.15341 299.321 9.15341C299.052 9.15341 298.81 9.22159 298.594 9.35795C298.382 9.49053 298.213 9.67803 298.088 9.92045C297.963 10.1591 297.901 10.4394 297.901 10.7614V16H295.48Z" fill="white"/>
</svg>
